<?xml version="1.0" encoding="utf-8"?>
<!-- Generator: Adobe Illustrator 28.3.0, SVG Export Plug-In . SVG Version: 6.00 Build 0)  -->
<svg version="1.1" id="图层_1" xmlns="http://www.w3.org/2000/svg" xmlns:xlink="http://www.w3.org/1999/xlink" x="0px" y="0px"
	 viewBox="0 0 256 256" style="enable-background:new 0 0 256 256;" xml:space="preserve">
<style type="text/css">
	.st0{fill:#1296DB;}
</style>
<path class="st0" d="M127.9,149.6c16.6,0,29.8-12.2,30.5-27.9h-33.8V88.8C109.5,89.7,97,103,97,118.9
	C97.2,135.5,111.3,149.6,127.9,149.6z M105.8,129.8c0,0.1,4.4,10.4,13.7,11.7l-0.1,1.5c-10-1.5-14.5-12.2-14.7-12.6
	C104.7,130.3,105.8,129.8,105.8,129.8z"/>
<path class="st0" d="M133.6,81.5v31.4h30.8C164.4,96.1,150.3,81.9,133.6,81.5L133.6,81.5z"/>
<path class="st0" d="M121.5,176.1c0,3.8,3.1,6.9,6.9,6.9s6.9-3.1,6.9-6.9c0,0,0,0,0,0c0-3.8-3.1-6.9-6.9-6.9
	C124.6,169.2,121.5,172.3,121.5,176.1C121.5,176.1,121.5,176.1,121.5,176.1z"/>
<path class="st0" d="M49.9,162.8h160V68.8h-160V162.8z M132.1,80.6h0.7c17.8,0,33,14.7,33,32.3v1.5h-33.8V80.6z M126.2,86.5h1.5
	v32.3h33.8v1.5c-0.1,18.1-14.8,32.3-33.6,32.3c-18.2,0-33.6-15.1-33.6-33.3C94.2,101.3,108.9,86.5,126.2,86.5z"/>
<path class="st0" d="M128,0C57.2,0,0,57.2,0,128s57.2,128,128,128s128-57.2,128-128S198.8,0,128,0z M210.9,190.7h-67.1v20.6h32.7
	c3.5,0,6.9,3.8,6.9,7.2v7.5H76.3v-7.5c0-3.5,3.2-7.2,6.6-7.2h33v-20.6H48.9c-7.6,0-13.7-5.7-13.7-13.4V69.9c0-7.6,6-14.2,13.7-14.2
	h160.3c7.8,0,13.9,6.6,15.4,13.4v108.3C224.6,185,218.6,190.7,210.9,190.7z"/>
</svg>
