<?xml version="1.0" standalone="no"?><!DOCTYPE svg PUBLIC "-//W3C//DTD SVG 1.1//EN" "http://www.w3.org/Graphics/SVG/1.1/DTD/svg11.dtd"><svg t="1713855812099" class="icon" viewBox="0 0 1024 1024" version="1.1" xmlns="http://www.w3.org/2000/svg" p-id="5419" xmlns:xlink="http://www.w3.org/1999/xlink" width="256" height="256"><path d="M512 0c-282.769683 0-512 229.230317-512 512s229.230317 512 512 512 512-229.230317 512-512-229.229293-512-512-512zM405.394052 773.667285h-95.423857v-95.423857h95.423857v95.423857z m0-134.39079h-95.423857v-95.423857h95.423857v95.423857z m0-134.39079h-95.423857v-95.423857h95.423857v95.423857z m152.423153 268.78158h-95.423857v-95.423857h95.423857v95.423857z m0-134.39079h-95.423857v-95.423857h95.423857v95.423857z m148.641893 134.39079H611.035241v-95.423857h95.423857v95.423857z m157.247202-382.645091c-3.340198 7.710905-10.864854 12.321075-18.767125 12.321074-2.711864 0-5.466709-0.543396-8.115126-1.690566l-47.163927-20.431084v404.326703c0 11.289543-9.151775 20.441318-20.441318 20.441318s-20.441318-9.151775-20.441318-20.441318v-422.037736L512 260.939687 272.623217 364.637288v420.911033c0 11.289543-9.151775 20.441318-20.441317 20.441318-11.289543 0-20.441318-9.151775-20.441318-20.441318V382.348321l-44.562584 19.304381a20.363543 20.363543 0 0 1-8.115126 1.690566c-7.901247 0-15.425903-4.608123-18.767125-12.321074-4.487368-10.359322 0.27221-22.394883 10.631532-26.882252l73.179405-31.701183 0.204669-0.088007 255.608059-110.729006a20.482251 20.482251 0 0 1 12.075471-3.604221 20.491461 20.491461 0 0 1 12.092869 3.606268L853.075791 364.140966c10.358299 4.486345 15.117877 16.521906 10.630509 26.881228z" fill="#d4237a" p-id="5420"></path></svg>