<?xml version="1.0" standalone="no"?><!DOCTYPE svg PUBLIC "-//W3C//DTD SVG 1.1//EN" "http://www.w3.org/Graphics/SVG/1.1/DTD/svg11.dtd"><svg t="1713859288823" class="icon" viewBox="0 0 1024 1024" version="1.1" xmlns="http://www.w3.org/2000/svg" p-id="27601" xmlns:xlink="http://www.w3.org/1999/xlink" width="256" height="256"><path d="M512.7 2C230.5 2 1.7 230.8 1.7 513s228.8 511 511 511 511-228.8 511-511S794.9 2 512.7 2z m99.4 404.9c1.9-7.8 3.8-17.6 4.7-28.3 0.9-8.8 1.9-16.6 1.9-23.4 0-6.8 0.9-12.7 0.9-17.6V322c3.8-1 8.4-1 12.2-1 4.7 0 7.5 0 10.3 1 5.6 2 9.4 3 10.3 4.9 1 2 2.8 3 3.8 3.9 0.9 1 2.8 1 3.8 1 2 0.1 3.9 0.1 8.6 1 4.7 1 8.4 3 11.3 6.8 2.8 3.9 4.7 8.8 4.7 14.6 0 2 0 4.9 0.9 8.8 0 3.9 1 7.8 1 11.7 0 3.9 0 7.8-1 11.7 0 3.9-0.9 5.8-1.8 6.8s-2.8 2-3.8 2-1.8 0-1.8 2v6.8c0 3.9-0.9 8.8-2.8 15.6-1 3-1.9 6.8-2.8 8.8-0.9 3-2.8 4.9-4.7 6.8-1.8 2-3.8 4.9-5.6 6.8 0 3-0.9 4.9-0.9 7.8v11.7c0 2 0.9 3.9 1.8 4.9 0.9 1 2.8 2 5.7 2.9 0.9 0 4.7 1 9.4 3s10.3 3.9 15.9 5.8c5.6 2 11.3 3.9 15.9 5.8 4.7 2 8.4 3 10.3 3.9 3.8 2 6.6 3.9 8.4 6.8 1.9 2 2.8 4.9 2.8 8.8 0 2 0.9 4.9 1.8 9.8 1 4.9 1 9.8 1.8 15.6 0.9 5.9 0.9 10.8 1.8 14.6 1 4.9 1 6.8 1 8.8 0 3 0 4.9-1 6.8-0.9 2-3.8 3-7.5 3.9-2.8 1-7.5 2-13.2 3-5.6 1-12.2 2-20.7 3l-2.8-11.7c-0.9-3-1.8-6.8-3.8-10.8-0.9-3.9-2.8-6.8-4.7-9.8-3.8-4.9-7.5-8.7-11.3-12.7-3.8-3-7.5-5.8-12.2-7.8-4.7-1.9-7.5-3.9-12.2-4.9-4.7-1-7.5-2.9-12.2-3.9-16.9-5.8-30-10.7-40.4-12.7-10.3-2-16-4.9-16.9-5.8-0.9-1-0.9-2-0.9-3.9V480c0-2 0-3.9 0.9-5.8 4.7-1 8.4-2 10.3-2.9 1.9 0 3.8-1 5.6-1 2.8-1 4.7-1 7.5-2 1.9-1 3.8-2 3.8-3.9V447l-0.9-1-1.9-1c-0.9 0-0.9-1-1.9-3 1.9-4.9 3.8-9.8 5.7-15.6 2.1-5.8 4-11.6 4.9-19.5z m-187.8-66.3c0.9-11.8 2.8-23.4 5.6-34.2 2.8-10.7 9.4-20.5 18.8-30.3 4.7-4.9 11.3-7.8 19.7-10.7 8.4-3 16.9-4.9 25.3-6.8 8.5-1 16.9-2 24.5-2 7.5 0 13.2 1 17.8 2 4.7 1 7.5 3 10.3 3.9 2.8 2 4.7 3 6.6 3.9 1.8 1 2.8 3 3.8 3.9l2.8 2.9c1.7 0.9 3.5 1.8 6 1.2-1.1-0.2-1.1-0.2 0.5-0.2-0.2 0.1-0.4 0.1-0.5 0.2 1.4 0.2 4.5 0.7 8.1 1.8 7.5 2 14.1 5.8 18.8 12.7 4.7 6.8 7.5 14.6 8.4 24.4 0 3 0 7.8 0.9 14.6 0 6.8 0.9 13.7 0.9 20.5 0 6.8 0 13.7-0.9 19.5-0.9 5.8-0.9 9.8-2.8 10.7-1.8 2-3.8 3.9-5.6 2.9-1.9 0-2.8 1-2.8 3 0 1 0 4.9-0.9 10.7-0.9 5.9-1.9 14.6-3.8 25.4-0.9 5.8-2.8 10.8-5.7 15.6-2.8 4.9-4.7 8.8-7.5 12.7-2.8 3.9-6.6 7.8-9.3 11.7 0 4.9-1 8.8-1 12.7V484c0 3.9 0 6.8 1 8.8 0 3.9 0.9 6.8 2.8 8.8 1.9 2 4.7 3 9.4 4.9 1.9 1 4.7 2 8.4 3 4.7 1 9.4 2.9 15 4.9 5.7 1.9 12.2 4.9 18.8 6.8 6.6 2 12.2 4.9 18.8 6.8 5.6 1.9 11.3 3.9 15.9 5.8 4.7 2 8.5 3 10.3 3.9 6.6 2.9 11.3 6.8 13.1 10.7 1.9 3.9 3.8 8.8 5.6 14.6 1 3 1.9 8.8 2.8 16.6 0.9 7.8 2.8 16.6 3.8 25.4 0.9 8.7 2.8 17.6 2.8 25.3 0 7.8 0.9 12.7 1.8 14.6 0 4.9 0 7.8-1.8 11.8-1.9 2.9-5.7 5.8-12.2 6.8-5.6 1-14.1 3-24.4 3.9-10.3 1.9-23.5 3-36.7 3.9-14.1 0.9-29.1 2.9-46 2.9s-34.8 1-53.5 1c-18.8 0-36.7 0-53.5-1-16.9-1-32.8-2-46.9-2.9-14.1-1-27.3-3-37.5-3.9-11.3-1.9-19.7-3-25.3-4.9-0.9 0-2.8-1-4.7-2-1.8-1-3.8-1.9-5.6-3.9-1.9-2-2.8-3-3.8-5.9-0.9-1.9-0.9-4.9-0.9-7.8 0-1.9 0.9-7.8 2.8-15.6 1.9-8.8 2.8-17.6 4.7-26.4 1.8-9.7 3.8-18.5 5.6-26.3 1.9-7.8 2.8-13.7 3.8-15.6 0.9-3.9 2.8-8.8 5.7-12.7 2.8-4.9 6.6-8.7 12.2-13.7 2.8-2 8.4-4.9 16-7.8 7.5-3 15.9-4.9 24.4-7.8 8.4-1.9 16.9-4.9 24.4-5.8 7.5-1 12.2-2.9 15-3.9 4.7-1 9.4-1.9 13.2-3.9 3.8-2 5.6-3.9 5.6-6.8v-29.3c-3.8-3-6.6-6.8-10.3-9.8-2.8-3-5.6-6.8-8.4-10.7-2.8-3.9-5.7-8.8-7.5-13.7-4.7-8.8-7.5-17.6-8.4-25.4-0.9-7.8-1.9-11.8-2.8-13.7 0-1-1.9-3-3.8-3-1.8-1-3.8-2.9-4.7-4.9-2.8-5.8-3.8-11.8-3.8-18.5-0.1-6.5 0.8-15.3 0.8-27z m-136 203c0.9-3.9 1.8-9.8 3.8-17.6 1.8-7.8 3.8-14.6 4.7-20.5 1.9-11.7 7.5-19.6 16.9-24.4 2.8-1 5.6-3 10.3-3.9 4.7-1 8.4-3 13.2-3.9 4.7-1 8.4-2 12.2-3 3.8-1 6.5-2 8.4-2 2.8-1 5.7-2 6.6-3 1-0.9 1.9-2.9 1.9-4.9v-14.6c-1.9-2-3.8-2.9-4.7-4.9-0.9-1.9-1.8-2.9-3.8-4.9-1.9-2-2.8-2.9-3.8-4.9-1.8-3-3.8-6.8-5.6-10.8-1.9-3.9-2.8-7.8-2.8-12.7-1-3.9-1-6.8-1.9-6.8-0.9 0-1.9 0-2.8-1-1-0.9-1.9-1.9-1.9-2.9-0.9-1-0.9-3-1.8-5.9-0.9-3-0.9-5.8-0.9-9.8 0-2.9 0.9-6.8 0.9-11.7 0-2 0.9-4.9 0.9-7.8 0-3 0.9-6.8 1.8-10.8 1-3.9 2.8-7.7 4.7-11.7 2.8-3.9 5.7-6.8 9.4-9.8 4.7-3 9.4-4.9 15-6.8 5.6-1.9 10.3-2.9 15-2.9 5.6 0 10.3 0 15.9 1-0.9 8.8-1.8 16.6-1.7 24.4 0 7.8 0 15.6 0.9 24.4 0.9 8.8 1.9 17.6 3.8 25.4 0.9 5.9 2.8 11.7 4.7 16.6 1.9 4.9 4.7 9.8 6.6 13.7 1.9 4.9 4.7 9.7 7.5 13.7-0.9 2-0.9 3.9-0.9 5.8-0.9 2-0.9 2.9-0.9 4.9v4.9c0 3.9 0.9 5.8 0.9 7.8 0.9 1 1.8 3 4.7 3.9 1.8 1 3.8 1 5.6 2l6.6 2 8.4 3v6.8c0 2.9-0.9 3.9-3.8 4.9-2.8 1-5.7 1-9.4 2l-4.7 1c-1.8 0-3.8 1-4.7 1-0.9 1-49.8 16.6-49.8 16.6-4.7 3-9.4 5.8-13.2 8.8l-11.2 8.7c-3.8 2.9-6.6 5.8-9.4 8.7-2.8 3.9-4.7 6.8-6.6 10.8-0.9 3.9-2.8 7.7-3.8 11.7-0.9 4.9-1.9 8.7-2.8 12.7-3.8-0.9-7.5-0.9-11.3-1.9-3.8-1-6.6-2-10.3-2-3.7-0.9-6.5-0.9-8.4-1.9-4.7-1-7.5-3-8.4-6.8-0.9-3.9-0.9-7.8 0-10.7z m225.1 225.8c-145.9 0-264.3-40.3-264.3-89.9 0-8.1 3.1-15.9 9-23.4 30.3 38.3 133.1 66.6 255.3 66.6 122.2 0 225-28.2 255.2-66.6 5.9 7.4 9 15.3 9 23.4 0.1 49.6-118.3 89.9-264.2 89.9z" fill="#3E4CAD" p-id="27602"></path></svg>