<?xml version="1.0" standalone="no"?>
<!DOCTYPE svg PUBLIC "-//W3C//DTD SVG 1.1//EN" "http://www.w3.org/Graphics/SVG/1.1/DTD/svg11.dtd"><svg t="1713432184024"
    class="icon" viewBox="0 0 1024 1024" version="1.1" xmlns="http://www.w3.org/2000/svg" p-id="21598"
    xmlns:xlink="http://www.w3.org/1999/xlink" width="256" height="256">
    <path d="M512 512m-512 0a512 512 0 1 0 1024 0 512 512 0 1 0-1024 0Z" fill="#1296db" p-id="21599"></path>
    <path
        d="M804.992 403.456h-18.261333V315.392l-0.128-1.664a14.634667 14.634667 0 0 0-3.541334-9.642667l-146.517333-167.338666-0.128-0.128a14.72 14.72 0 0 0-6.869333-4.266667l-0.810667-0.298667a14.933333 14.933333 0 0 0-3.413333-0.426666H265.258667a29.866667 29.866667 0 0 0-29.781334 29.824v242.005333H217.173333a42.581333 42.581333 0 0 0-42.581333 42.581333v221.44c0 23.552 19.072 42.624 42.581333 42.624h18.261334v151.637334a29.866667 29.866667 0 0 0 29.781333 29.781333h491.690667a29.866667 29.866667 0 0 0 29.781333-29.781333v-151.637334h18.261333a42.581333 42.581333 0 0 0 42.581334-42.581333v-221.44a42.581333 42.581333 0 0 0-42.581334-42.666667zM265.258667 161.450667h345.173333v152.448a14.933333 14.933333 0 0 0 14.890667 14.933333h131.626666v74.624H265.258667V161.450667z m306.346666 390.698666c0 66.218667-40.106667 106.368-99.157333 106.368-59.904 0-94.976-45.226667-94.976-102.784 0-60.501333 38.656-105.728 98.261333-105.728 62.037333 0 95.872 46.421333 95.872 102.144z m-326.570666 103.082667v-201.941333h45.824v163.584h80.298666v38.357333H245.034667z m511.914666 198.4H265.258667v-143.530667h491.690666v143.530667z m13.354667-207.701333c-14.08 4.778667-40.746667 11.392-67.413333 11.392-36.864 0-63.530667-9.301333-82.090667-27.264-18.56-17.365333-28.757333-43.733333-28.458667-73.386667 0.298667-67.157333 49.109333-105.472 115.328-105.472 26.069333 0 46.165333 5.12 56.064 9.856l-9.6 36.565333c-11.093333-4.778667-24.874667-8.704-47.018666-8.704-38.058667 0-66.858667 21.589333-66.858667 65.322667 0 41.642667 26.069333 66.218667 63.573333 66.218667 10.453333 0 18.858667-1.194667 22.442667-2.986667v-42.24h-31.146667v-35.669333h75.178667v106.368z"
        fill="#FFFFFF" p-id="21600"></path>
    <path
        d="M425.728 554.837333c0 39.552 18.56 67.413333 49.109333 67.413334 30.848 0 48.554667-29.354667 48.554667-68.608 0-36.266667-17.408-67.413333-48.853333-67.413334-30.848 0-48.810667 29.397333-48.810667 68.608z"
        fill="#FFFFFF" p-id="21601"></path>
</svg>