<?xml version="1.0" standalone="no"?><!DOCTYPE svg PUBLIC "-//W3C//DTD SVG 1.1//EN" "http://www.w3.org/Graphics/SVG/1.1/DTD/svg11.dtd"><svg t="1713925322477" class="icon" viewBox="0 0 1024 1024" version="1.1" xmlns="http://www.w3.org/2000/svg" p-id="4549" xmlns:xlink="http://www.w3.org/1999/xlink" width="256" height="256"><path d="M512 0a512 512 0 1 0 512 512A513.422222 513.422222 0 0 0 512 0z m238.933333 807.822222H290.133333a75.377778 75.377778 0 0 1-73.955555-73.955555V403.911111A155.875556 155.875556 0 0 1 227.555556 369.777778c11.377778-22.755556 31.288889-56.888889 48.355555-85.333334 8.533333-17.066667 17.066667-28.444444 22.755556-39.822222A76.231111 76.231111 0 0 1 366.933333 199.111111h310.044445a56.888889 56.888889 0 0 1 51.2 34.133333c2.844444 2.844444 56.888889 85.333333 73.955555 119.466667a246.897778 246.897778 0 0 1 17.066667 45.511111v5.688889c0 2.844444 2.844444 5.688889 2.844444 8.533333v321.422223h2.844445a75.377778 75.377778 0 0 1-73.955556 73.955555z" fill="#1296db" p-id="4550"></path><path d="M642.844444 435.2h-8.533333v224.711111l-105.244444-79.644444-102.4 79.644444v-224.711111H250.311111v298.666667a37.546667 37.546667 0 0 0 36.977778 36.977777h460.8a37.546667 37.546667 0 0 0 36.977778-36.977777V432.355556h-28.444445c-25.6 2.844444-68.266667 2.844444-113.777778 2.844444z" fill="#1296db" p-id="4551"></path><path d="M597.333333 580.266667v-142.222223h-130.844444v142.222223l65.422222-48.355556 65.422222 48.355556zM702.577778 253.155556c-2.844444-5.688889-14.222222-17.066667-19.911111-17.066667H369.777778a43.235556 43.235556 0 0 0-39.822222 25.6 389.688889 389.688889 0 0 0-22.755556 39.822222 484.977778 484.977778 0 0 0-45.511111 82.488889c0 2.844444-2.844444 5.688889-2.844445 11.377778h529.066667a54.328889 54.328889 0 0 1-14.222222-28.444445c-17.066667-31.288889-71.111111-113.777778-71.111111-113.777777z" fill="#1296db" p-id="4552"></path></svg>