<?xml version="1.0" standalone="no"?><!DOCTYPE svg PUBLIC "-//W3C//DTD SVG 1.1//EN" "http://www.w3.org/Graphics/SVG/1.1/DTD/svg11.dtd"><svg t="1714024769919" class="icon" viewBox="0 0 1024 1024" version="1.1" xmlns="http://www.w3.org/2000/svg" p-id="28378" xmlns:xlink="http://www.w3.org/1999/xlink" width="256" height="256"><path d="M672.256 607.744H599.04c-7.168 0-12.8 5.632-12.8 12.8s5.632 12.8 12.8 12.8h73.216c7.168 0.512 12.8-5.632 12.8-12.8 0-6.656-5.632-12.8-12.8-12.8z" fill="#FE4D62" p-id="28379"></path><path d="M512 0C229.376 0 0 229.376 0 512s229.376 512 512 512 512-229.376 512-512S794.624 0 512 0z m10.752 712.192c-3.072 3.072-7.168 4.608-11.776 4.608H327.68c-15.36 0-29.184-10.24-34.304-26.112-0.512-2.048-1.024-4.096-1.024-6.144v-67.072c0-17.408 11.776-35.84 27.136-42.496 30.208-13.312 61.44-24.064 93.696-31.232-26.112-18.944-43.52-49.664-43.52-85.504V396.288c0-57.344 45.056-103.936 100.352-103.936s100.352 46.592 100.352 103.936v61.44c0 3.072-0.512 6.656-0.512 9.728-2.56 29.696-17.92 57.344-41.984 74.752-0.512 0.512-1.024 1.024-2.048 1.536-33.28 46.592-16.384 106.496-2.048 140.288 2.56 3.584 4.096 7.68 4.608 11.264 0 0.512 0.512 1.024 0.512 2.048 0.512 6.144-2.048 11.264-6.144 14.848z m140.288 15.872c-8.704 2.56-17.408 3.584-26.624 3.584-60.416 0-109.568-49.152-109.568-109.568s49.152-109.568 109.568-109.568c8.704 0 17.92 1.024 26.624 3.584 47.616 11.776 82.944 54.784 82.944 105.984s-35.328 93.696-82.944 105.984z" fill="#FE4D62" p-id="28380"></path></svg>