<?xml version="1.0" encoding="utf-8"?>
<!-- Generator: Adobe Illustrator 28.3.0, SVG Export Plug-In . SVG Version: 6.00 Build 0)  -->
<svg version="1.1" id="图层_1" xmlns="http://www.w3.org/2000/svg" xmlns:xlink="http://www.w3.org/1999/xlink" x="0px" y="0px"
	 viewBox="0 0 256 256" style="enable-background:new 0 0 256 256;" xml:space="preserve">
<style type="text/css">
	.st0{fill:#D81E06;}
</style>
<path class="st0" d="M145.2,101.3c-0.5,1.4-1.1,2.7-1.5,4.1c3.3,12.7,8.2,25,14.5,36.5c6-12.9,10-26.6,11.9-40.7H145.2z"/>
<path class="st0" d="M128-0.4C57.3-0.4,0,56.9,0,127.6s57.3,128,128,128s128-57.3,128-128C255.9,57,198.7-0.3,128-0.4z M186,197.9
	c-10.5-6.2-19.8-14.3-27.3-23.9c-8.3,10.2-18.6,18.7-30.1,25c-3.3-5.4-7.3-10.3-11.7-14.8c12.5-5.8,23.3-14.6,31.7-25.6
	c-6.1-10.5-10.9-21.7-14.5-33.3c-2.4,3.8-5,7.5-7.9,10.9c-3.2-5.1-6.9-9.8-11-14.1v76.7h-18v-39.3c-24.3,8.5-29.1,11.3-32.6,14
	c-1.6-5.8-3.9-11.4-7-16.6c3.9-2.2,6.1-6.4,5.7-10.8V72.7H81V147l16.1-4.9V58.7h18v60c11.9-14.8,18.9-37.9,22.5-62.5l18.4,3.1
	c-1.5,8.5-3.2,17.1-5.3,25.1h46.7v16.9H188c-2.9,20-9.3,39.4-18.9,57.3c7.8,10.1,17.7,18.4,29.1,24.2c-4.9,4.4-9,9.5-12.3,15.2
	L186,197.9z"/>
</svg>
