<?xml version="1.0" standalone="no"?><!DOCTYPE svg PUBLIC "-//W3C//DTD SVG 1.1//EN" "http://www.w3.org/Graphics/SVG/1.1/DTD/svg11.dtd"><svg t="1714024704872" class="icon" viewBox="0 0 1024 1024" version="1.1" xmlns="http://www.w3.org/2000/svg" p-id="23834" xmlns:xlink="http://www.w3.org/1999/xlink" width="256" height="256"><path d="M512 0C229.376 0 0 229.376 0 512s229.376 512 512 512 512-229.376 512-512S794.624 0 512 0z m29.184 715.264c-3.072 3.072-7.168 4.608-11.776 4.608H348.16c-15.36 0-28.672-10.24-33.792-26.112-0.512-2.048-1.024-4.096-1.024-6.144v-66.56c0-17.408 11.776-35.328 27.136-41.984 29.696-13.312 60.928-23.552 92.672-31.232-26.112-18.432-43.008-49.664-43.008-84.992v-61.44c0-56.832 44.544-102.912 98.816-102.912s98.816 46.08 98.816 102.912v61.44c0 3.584-0.512 6.656-0.512 9.728-2.56 29.696-17.92 56.832-41.472 74.24-0.512 0.512-1.024 1.024-2.048 1.536-32.768 46.592-16.384 105.472-1.536 139.264 2.56 3.584 4.096 7.168 5.12 11.264 0 0.512 0.512 1.536 0.512 2.048-0.512 5.632-3.072 10.752-6.656 14.336z m139.776 10.752c-8.192 2.048-16.896 3.584-26.112 3.584-59.392 0-108.032-50.688-108.032-112.64s48.64-112.64 108.032-112.64c8.704 0 17.408 1.024 26.112 3.584 47.104 12.288 81.92 56.32 81.92 109.056s-34.816 96.768-81.92 109.056z" fill="#2792FF" p-id="23835"></path><path d="M690.688 603.136h-23.04v-23.552c0-7.168-5.632-13.312-12.8-13.312s-12.8 5.632-12.8 13.312v23.552h-23.552c-7.168 0-12.8 5.632-12.8 13.312 0 3.584 1.024 6.656 3.584 9.216s5.632 4.096 9.216 4.096h23.552v25.088c0 3.584 1.024 6.656 3.584 9.216 2.56 2.56 5.632 4.096 9.216 4.096 7.168 0 12.8-5.632 12.8-13.312V629.76h23.04c7.168 0 12.8-5.632 12.8-13.312-0.512-7.168-6.144-13.312-12.8-13.312z" fill="#2792FF" p-id="23836"></path></svg>