<?xml version="1.0" standalone="no"?><!DOCTYPE svg PUBLIC "-//W3C//DTD SVG 1.1//EN" "http://www.w3.org/Graphics/SVG/1.1/DTD/svg11.dtd"><svg t="1713834430478" class="icon" viewBox="0 0 1024 1024" version="1.1" xmlns="http://www.w3.org/2000/svg" p-id="24734" xmlns:xlink="http://www.w3.org/1999/xlink" width="256" height="256"><path d="M433.28512 315.07456h149.34016c8.06912 0 16.14848-7.87456 16.14848-19.69152v-35.45088c0-11.80672-8.07936-19.69152-16.14848-19.69152H433.28512c-8.06912 0-16.13824 7.8848-16.13824 19.69152v35.45088c0 11.81696 8.06912 19.69152 16.13824 19.69152z" fill="#1296db" p-id="24735"></path><path d="M512 0C229.23264 0 0 229.23264 0 512s229.23264 512 512 512 512-229.23264 512-512S794.76736 0 512 0z m78.70464 500.18304l-56.51456-55.1424 24.22784-27.55584 32.27648 31.49824 68.61824-59.0848 24.2176 27.57632-92.8256 82.70848z m92.83584 59.0848l-92.83584 82.69824-56.51456-55.1424L558.41792 563.2l32.27648 31.50848 68.61824-63.01696 24.22784 27.57632zM380.81536 259.93216c0-31.50848 24.22784-55.13216 56.51456-55.13216h149.34016c32.27648 0 56.51456 23.62368 56.51456 55.13216v35.45088c0 31.50848-28.25216 55.1424-56.51456 55.1424H437.32992c-32.27648 0-56.51456-23.63392-56.51456-55.1424v-35.45088z m-20.1728 287.50848V512h113.00864v35.44064H360.64256z m113.00864 70.89152v35.46112H360.64256v-35.46112h113.00864zM360.64256 437.16608V401.7152h113.00864v35.45088H360.64256zM788.48 728.60672C788.48 779.81696 748.12416 819.2 695.6544 819.2h-367.3088C275.87584 819.2 235.52 779.81696 235.52 728.60672V330.82368c0-51.2 40.35584-90.58304 92.8256-90.58304h36.33152v35.45088h-36.33152c-32.27648 0-56.50432 23.63392-56.50432 55.13216v397.79328c0 31.50848 24.2176 55.15264 56.50432 55.15264h367.29856c32.27648 0 56.50432-23.64416 56.50432-55.15264V330.82368c0-31.49824-24.2176-55.13216-56.50432-55.13216h-32.28672v-35.45088h32.28672c52.46976 0 92.8256 39.38304 92.8256 90.58304v397.78304z" fill="#1296db" p-id="24736"></path></svg>