<?xml version="1.0" standalone="no"?><!DOCTYPE svg PUBLIC "-//W3C//DTD SVG 1.1//EN" "http://www.w3.org/Graphics/SVG/1.1/DTD/svg11.dtd"><svg t="1749796738990" class="icon" viewBox="0 0 1024 1024" version="1.1" xmlns="http://www.w3.org/2000/svg" p-id="6661" xmlns:xlink="http://www.w3.org/1999/xlink" width="256" height="256"><path d="M0 0m512 0l0 0q512 0 512 512l0 0q0 512-512 512l0 0q-512 0-512-512l0 0q0-512 512-512Z" fill="#269A99" p-id="6662"></path><path d="M245.205333 332.8c5.056 0 9.194667 4.245333 9.194667 9.429333v181.546667c0 10.453333 8.213333 18.88 18.389333 18.88h515.2c10.197333 0 18.410667 8.426667 18.410667 18.858667v127.317333a2.346667 2.346667 0 0 1-2.304 2.368h-32.213333a2.346667 2.346667 0 0 1-2.282667-2.346667v-74.325333a9.344 9.344 0 0 0-9.194667-9.429333H263.594667a9.344 9.344 0 0 0-9.194667 9.429333v74.304a2.346667 2.346667 0 0 1-2.304 2.368h-32.213333a2.346667 2.346667 0 0 1-2.282667-2.346667V335.146667c0-1.28 1.045333-2.346667 2.304-2.346667h25.301333zM794.133333 448c6.784 0 12.266667 5.482667 12.266667 12.266667v52.266666a12.266667 12.266667 0 0 1-12.266667 12.266667H266.666667V448h527.466666z" fill="#FFFFFF" p-id="6663"></path></svg>