<?xml version="1.0" standalone="no"?><!DOCTYPE svg PUBLIC "-//W3C//DTD SVG 1.1//EN" "http://www.w3.org/Graphics/SVG/1.1/DTD/svg11.dtd"><svg t="1714024077694" class="icon" viewBox="0 0 1024 1024" version="1.1" xmlns="http://www.w3.org/2000/svg" p-id="10389" xmlns:xlink="http://www.w3.org/1999/xlink" width="256" height="256"><path d="M656 384v480H80V384l288-144 288 144z" fill="#808080" p-id="10390"></path><path d="M656 384h288v480H656z" fill="#CCCCCC" p-id="10391"></path><path d="M48 400l320-160 320 160v-80L368 160 48 320v80z" fill="#FFCC77" p-id="10392"></path><path d="M688 320h288v80H688z" fill="#FDA725" p-id="10393"></path><path d="M368 160l320 160h288L608 160H368z" fill="#FCB73F" p-id="10394"></path><path d="M720 464h160v64h-160z" fill="#808080" p-id="10395"></path><path d="M208 736h128v128h-128z" fill="#FFCC77" p-id="10396"></path><path d="M208 608h128v128h-128z" fill="#FF6F35" p-id="10397"></path><path d="M208 480h128v128h-128z" fill="#FFCC77" p-id="10398"></path><path d="M336 480h64v128h-64z" fill="#FCB73F" p-id="10399"></path><path d="M336 608h128v128h-128z" fill="#FFCC77" p-id="10400"></path><path d="M464 608h64v128h-64z" fill="#FCB73F" p-id="10401"></path><path d="M336 736h128v128h-128z" fill="#FF6F35" p-id="10402"></path><path d="M464 736h64v128h-64z" fill="#E05E1D" p-id="10403"></path><path d="M144 864V416h448v448h64V384l-288-144-288 144v480h64z" fill="#E6E6E6" p-id="10404"></path><path d="M982.378 305.33v-0.004l-0.086-0.038-0.108-0.046L614.38 145.326A15.994 15.994 0 0 0 608 144H368.018a15.998 15.998 0 0 0-7.174 1.69l-320 160A16 16 0 0 0 32 320v80a16 16 0 0 0 23.156 14.31l8.844-4.42V864a16 16 0 0 0 16 16h864a16 16 0 0 0 16-16V416h16a16 16 0 0 0 16-16v-80a16 16 0 0 0-9.622-14.67zM899.072 304H691.778l-256-128h168.894zM64 329.888l304-152 304 152v44.224l-296.844-148.422a16 16 0 0 0-14.312 0L64 374.11zM576 848h-32V608a16 16 0 0 0-16-16h-112v-112a16 16 0 0 0-16-16h-192a16 16 0 0 0-16 16v368H160V432h416z m-352-128v-96h32v32h32v-32h32v96z m64-192v-32h32v96h-96v-96h32v32z m64-32h32v96h-32z m128 128h32v96h-32z m-32 96h-96v-96h32v32h32v-32h32z m-96 32h32v32h32v-32h32v96h-96z m128 0h32v96h-32z m-256 96v-96h32v32h32v-32h32v96z m384 0V416a16 16 0 0 0-16-16H144a16 16 0 0 0-16 16v432H96V393.888l272-136 272 136V848z m320 0H672V409.888l8.844 4.422A16.004 16.004 0 0 0 688 416h240z m32-464H704v-48h256z" p-id="10405"></path><path d="M720 544h160a16 16 0 0 0 16-16v-64a16 16 0 0 0-16-16h-160a16 16 0 0 0-16 16v64a16 16 0 0 0 16 16z m16-64h128v32h-128z" p-id="10406"></path></svg>