<?xml version="1.0" standalone="no"?><!DOCTYPE svg PUBLIC "-//W3C//DTD SVG 1.1//EN" "http://www.w3.org/Graphics/SVG/1.1/DTD/svg11.dtd"><svg t="1714024361776" class="icon" viewBox="0 0 1024 1024" version="1.1" xmlns="http://www.w3.org/2000/svg" p-id="14173" xmlns:xlink="http://www.w3.org/1999/xlink" width="256" height="256"><path d="M511.071 512.632m-447.737 0a447.737 447.737 0 1 0 895.474 0 447.737 447.737 0 1 0-895.474 0Z" fill="#76C2AF" p-id="14174"></path><path d="M448.108 540.616c0 34.774 28.19 62.963 62.963 62.963s62.963-28.19 62.963-62.963-28.19-62.963-62.963-62.963-62.963 28.189-62.963 62.963z" fill="#231F20" p-id="14175"></path><path d="M818.147 520.656c-0.67-7.666-7.151-16.05-14.401-18.63l-57.749-20.553c-7.25-2.58-15.248-10.639-17.772-17.908l-9.13-22.113c-3.331-6.937-3.354-18.299-0.05-25.249l26.232-55.183c3.304-6.95 1.805-17.325-3.331-23.055l-28.224-28.224c-5.73-5.137-16.105-6.635-23.055-3.332l-55.183 26.233c-6.951 3.303-18.313 3.281-25.25-0.05l-22.116-9.121c-7.268-2.53-15.325-10.532-17.906-17.783L549.66 247.94c-2.581-7.25-10.964-13.73-18.63-14.401 0 0-8.494-0.743-19.96-0.743s-19.96 0.743-19.96 0.743c-7.666 0.67-16.049 7.151-18.63 14.401l-20.552 57.748c-2.581 7.25-10.637 15.255-17.904 17.787l-22.079 9.116c-6.937 3.331-18.3 3.354-25.251 0.051l-55.219-26.236c-6.951-3.303-17.327-1.803-23.057 3.334l-28.224 28.224c-5.137 5.73-6.636 16.105-3.331 23.055l26.232 55.183c3.304 6.95 3.282 18.312-0.05 25.249l-9.121 22.117c-2.53 7.267-10.532 15.325-17.782 17.905l-57.749 20.553c-7.25 2.58-13.73 10.964-14.401 18.63 0 0-0.743 8.494-0.743 19.96 0 11.466 0.743 19.959 0.743 19.959 0.67 7.666 7.151 16.049 14.402 18.628l57.785 20.556c7.25 2.58 15.249 10.637 17.773 17.906l9.13 22.113c3.331 6.937 3.354 18.299 0.05 25.25L276.9 720.21c-3.304 6.951-1.808 17.328 3.325 23.061l28.23 28.218c5.73 5.136 16.105 6.636 23.055 3.331l55.183-26.232c6.951-3.304 18.313-3.282 25.25 0.05l22.116 9.121c7.267 2.53 15.324 10.532 17.903 17.783l20.556 57.785c2.58 7.25 10.963 13.721 18.631 14.38 0 0 8.453 0.727 19.919 0.727s19.96-0.743 19.96-0.743c7.666-0.671 16.048-7.151 18.628-14.402l20.556-57.785c2.579-7.25 10.636-15.249 17.906-17.774l22.112-9.129c6.937-3.331 18.299-3.354 25.25-0.049l55.183 26.232c6.95 3.304 17.327 1.807 23.06-3.325l28.218-28.23c5.137-5.73 6.635-16.105 3.331-23.056l-26.232-55.182c-3.304-6.951-3.282-18.313 0.05-25.25l9.121-22.116c2.53-7.267 10.532-15.324 17.783-17.904l57.785-20.556c7.25-2.579 13.721-10.963 14.38-18.63 0 0 0.726-8.454 0.726-19.919 0.005-11.467-0.738-19.96-0.738-19.96zM511.071 680.534c-77.27 0-139.918-62.649-139.918-139.918 0-77.27 62.648-139.918 139.918-139.918s139.918 62.648 139.918 139.918c0 77.269-62.648 139.918-139.918 139.918z" fill="#231F20" p-id="14176"></path><path d="M448.108 512.632c0 34.774 28.19 62.963 62.963 62.963s62.963-28.19 62.963-62.963-28.19-62.963-62.963-62.963-62.963 28.19-62.963 62.963z" fill="#4F5D73" p-id="14177"></path><path d="M818.147 492.672c-0.67-7.666-7.151-16.05-14.401-18.63l-57.749-20.553c-7.25-2.58-15.248-10.639-17.772-17.908l-9.13-22.113c-3.331-6.937-3.354-18.299-0.05-25.249l26.232-55.183c3.304-6.95 1.805-17.325-3.331-23.055l-28.224-28.224c-5.73-5.137-16.105-6.635-23.055-3.332l-55.183 26.233c-6.951 3.303-18.313 3.281-25.25-0.05l-22.116-9.121c-7.268-2.53-15.325-10.532-17.906-17.783l-20.552-57.748c-2.581-7.25-10.964-13.73-18.63-14.401 0 0-8.494-0.743-19.96-0.743s-19.96 0.743-19.96 0.743c-7.666 0.67-16.049 7.151-18.63 14.401l-20.552 57.748c-2.581 7.25-10.637 15.255-17.904 17.787l-22.079 9.116c-6.937 3.331-18.3 3.354-25.251 0.051l-55.219-26.236c-6.951-3.303-17.327-1.803-23.057 3.334l-28.224 28.224c-5.137 5.73-6.636 16.105-3.331 23.055l26.232 55.183c3.304 6.95 3.282 18.312-0.05 25.249l-9.121 22.117c-2.53 7.267-10.532 15.325-17.782 17.905l-57.749 20.553c-7.25 2.58-13.73 10.964-14.401 18.63 0 0-0.743 8.494-0.743 19.96 0 11.466 0.743 19.959 0.743 19.959 0.67 7.666 7.151 16.049 14.402 18.628l57.785 20.556c7.25 2.58 15.249 10.637 17.773 17.906l9.13 22.113c3.331 6.937 3.354 18.299 0.05 25.25L276.9 692.226c-3.304 6.951-1.808 17.328 3.325 23.061l28.23 28.218c5.73 5.136 16.105 6.635 23.055 3.331l55.183-26.232c6.951-3.304 18.313-3.282 25.25 0.05l22.116 9.121c7.267 2.53 15.324 10.532 17.903 17.783l20.556 57.785c2.58 7.25 10.963 13.721 18.631 14.38 0 0 8.453 0.727 19.919 0.727s19.96-0.743 19.96-0.743c7.666-0.671 16.048-7.151 18.628-14.402l20.556-57.785c2.579-7.25 10.636-15.249 17.906-17.774l22.112-9.129c6.937-3.331 18.299-3.354 25.25-0.049l55.183 26.232c6.95 3.304 17.327 1.807 23.06-3.325l28.218-28.23c5.137-5.73 6.635-16.105 3.331-23.056l-26.232-55.182c-3.304-6.951-3.282-18.313 0.05-25.25l9.121-22.116c2.53-7.267 10.532-15.324 17.783-17.904l57.785-20.556c7.25-2.579 13.721-10.963 14.38-18.63 0 0 0.726-8.454 0.726-19.919 0.005-11.466-0.738-19.96-0.738-19.96zM511.071 652.55c-77.27 0-139.918-62.649-139.918-139.918 0-77.27 62.648-139.918 139.918-139.918s139.918 62.648 139.918 139.918c0 77.269-62.648 139.918-139.918 139.918z" fill="#FFFFFF" p-id="14178"></path></svg>