<?xml version="1.0" standalone="no"?><!DOCTYPE svg PUBLIC "-//W3C//DTD SVG 1.1//EN" "http://www.w3.org/Graphics/SVG/1.1/DTD/svg11.dtd"><svg t="1714017526357" class="icon" viewBox="0 0 1024 1024" version="1.1" xmlns="http://www.w3.org/2000/svg" p-id="6937" xmlns:xlink="http://www.w3.org/1999/xlink" width="256" height="256"><path d="M766.000762 584.94781c8.825905 0 15.993905 7.168 15.993905 16.042666v51.980191c8.679619 2.681905 16.920381 6.144 24.771047 10.24l36.864-36.717715a15.993905 15.993905 0 0 1 22.576762 0l42.081524 42.081524a15.993905 15.993905 0 0 1 0 22.625524l-36.766476 36.815238c4.144762 7.801905 7.606857 16.091429 10.24 24.673524h52.028952c8.825905 0 15.993905 7.216762 15.993905 16.042667v59.489523a15.993905 15.993905 0 0 1-15.993905 16.091429h-51.98019a151.649524 151.649524 0 0 1-10.24 24.722286l36.717714 36.864a15.993905 15.993905 0 0 1 0 22.576762l-42.081524 42.081523a15.993905 15.993905 0 0 1-22.625524 0l-36.815238-36.766476a151.649524 151.649524 0 0 1-24.722285 10.24v52.028953a15.993905 15.993905 0 0 1-15.993905 15.993904h-59.538286a15.993905 15.993905 0 0 1-15.993905-15.993904v-51.980191a151.649524 151.649524 0 0 1-24.819809-10.24l-36.815238 36.717714a15.993905 15.993905 0 0 1-22.576762 0l-42.081524-42.081523a15.993905 15.993905 0 0 1 0-22.625524l36.717714-36.815238a151.649524 151.649524 0 0 1-10.24-24.722286H538.721524a15.993905 15.993905 0 0 1-16.042667-15.993905v-59.489524c0-8.874667 7.168-16.091429 16.042667-16.091428h51.98019a151.649524 151.649524 0 0 1 10.24-24.722286l-36.717714-36.864a15.993905 15.993905 0 0 1 0-22.576762l42.081524-42.081524a15.993905 15.993905 0 0 1 22.625524 0l36.766476 36.717715a151.649524 151.649524 0 0 1 24.722286-10.24v-51.980191c0-8.874667 7.168-16.042667 16.042666-16.042666h59.489524z m-130.438095-26.672762c16.286476 0 32.329143 1.462857 47.932952 4.339809l3.31581 0.682667a42.76419 42.76419 0 0 0-21.942858 30.037333 40.96 40.96 0 0 0-0.682666 12.970667v16.188952l-7.509334-7.168-8.777142-8.679619a42.812952 42.812952 0 0 0-60.416 0.24381l-42.130286 42.569143a42.715429 42.715429 0 0 0 0 60.220952l16.676571 16.774095h-23.30819a42.617905 42.617905 0 0 0-42.422857 37.302857l-0.292572 5.36381v58.758095a42.715429 42.715429 0 0 0 43.008 42.764191h23.015619l-16.335238 16.286476a42.812952 42.812952 0 0 0-4.242286 55.881143l4.144762 4.827428 37.741715 37.741714H179.931429a106.788571 106.788571 0 0 1-103.375239-133.412571l23.990858-93.281524a266.922667 266.922667 0 0 1 258.486857-200.411428h276.48z m100.693333 163.937523a76.312381 76.312381 0 1 0 0 152.624762 76.312381 76.312381 0 0 0 0-152.624762z m-517.071238-19.504761h-39.887238v138.288761h39.887238v-57.197714h43.885714v57.197714h39.936V702.659048h-39.936v47.88419h-43.885714v-47.88419z m186.221714 0H348.16v138.288761h39.887238v-46.567619h7.996952l29.257143 46.567619h46.518857l-37.205333-50.566095a34.377143 34.377143 0 0 0 18.578286-14.628571c3.998476-6.631619 5.36381-15.945143 5.363809-26.575238 0-17.310476-3.998476-29.257143-13.312-35.937524-9.313524-6.631619-22.625524-10.630095-39.887238-10.630095z m-7.996952 29.257142c3.998476 0 7.996952 1.316571 10.630095 1.316572 1.755429 0 2.925714 0.585143 4.33981 1.365333l2.291809 1.26781c2.681905 1.316571 2.681905 2.681905 3.998476 5.363809 1.365333 2.633143 1.365333 5.266286 1.365334 7.948191a17.749333 17.749333 0 0 1-5.36381 13.312c-3.949714 2.633143-9.264762 3.949714-17.261714 3.949714h-9.313524v-34.572191h9.264762zM496.006095 24.380952a240.249905 240.249905 0 1 1-10.435047 0.24381L496.006095 24.380952z" fill="#d4237a" p-id="6938"></path></svg>