<?xml version="1.0" standalone="no"?><!DOCTYPE svg PUBLIC "-//W3C//DTD SVG 1.1//EN" "http://www.w3.org/Graphics/SVG/1.1/DTD/svg11.dtd"><svg t="1714024206070" class="icon" viewBox="0 0 1024 1024" version="1.1" xmlns="http://www.w3.org/2000/svg" p-id="11445" xmlns:xlink="http://www.w3.org/1999/xlink" width="256" height="256"><path d="M342.199 818.398c13.2 0 25.6 2.4 37.2 7.2 11.8 4.8 22 11.6 31 20.2s15.8 18.8 20.6 30.6c4.8 11.8 7.2 24.2 7.2 37.2s-2.4 25.4-7.2 37.2c-4.8 11.8-11.8 22-20.6 30.6-9 8.6-19.2 15.4-31 20.6-11.8 5.2-24.2 7.8-37.2 7.8-13.8 0-26.4-2.6-37.8-7.8s-21.6-12-30.6-20.6-15.8-18.8-20.6-30.6c-4.8-11.8-7.2-24.2-7.2-37.2s2.4-25.6 7.2-37.2c4.8-11.8 11.8-21.8 20.6-30.6 9-8.6 19.2-15.4 30.6-20.2s24-7.2 37.8-7.2z m429.999 2c13.2 0 25.6 2.4 37.8 7.2 12 4.8 22.4 11.6 31 20.2s15.6 18.8 20.6 30.6c5.2 11.8 7.8 24.2 7.8 37.2 0 13-2.6 25.4-7.8 37.2-5.2 11.8-12 22-20.6 30.4-8.6 8.6-19 15.4-31 20.6-12 5.2-24.6 7.8-37.8 7.8s-25.6-2.6-37.2-7.8c-11.8-5.2-21.8-12-30.6-20.6-8.6-8.6-15.6-18.8-20.6-30.4-5.2-11.6-7.8-24-7.8-37.2s2.6-25.6 7.8-37.2c5.2-11.6 12-21.8 20.6-30.6 8.6-8.6 18.8-15.4 30.6-20.2 11.8-4.8 24.2-7.2 37.2-7.2z m173.8-587.199c19.2 0 34.2 2.6 45 7.8 10.6 5.2 18.2 11.6 22.8 19.2s6.6 15.6 6.2 24.2c-0.4 8.6-1.6 16-3.6 22.2-2 6.2-6.4 19-13 38.2s-14 40.4-22.2 63.6c-8.2 23.2-16.4 46-24.2 68.8-8 22.8-14 40.6-18 53.8-9 27.6-20.4 46.6-34.2 57.4-13.8 10.6-30.6 16-50.6 16H311.199l15.6 93h520.999c33 0 49.6 14.2 49.6 42.4 0 13.8-3.2 25.6-9.8 35.6-6.6 10-19.4 15-38.8 15H306.999c-13.8 0-25.4-3-34.6-9.2-9.4-6.2-17-14.2-23.2-24.2-6.2-10-11.2-20.8-15-32.6-3.8-11.8-6.8-22.8-8.8-33-0.6-4.2-2.6-14.2-5.6-30-3.2-15.8-7-35.6-11.4-59.4-4.4-23.8-9.4-50.4-15-79.6-5.6-29.2-11-58.8-16.6-88.4-13.2-69.6-28-147.2-44.4-232.599H54.8c-10.4 0-19-2.6-25.8-7.8-7-5.4-12.6-11.6-17.2-18.8s-7.6-15-9.2-23.2C0.8 143.2 0 135.8 0 128.8c0-13.8 4.6-25.2 14-34.2s21.8-13.4 37.8-13.4h104.4c13.8 0 24.8 2 33 6.2s14.8 9.4 19.6 15.6c4.8 6.2 8.2 12.8 10.4 19.6 2 7 3.8 12.8 5.2 17.6 1.4 5.6 2.8 13.2 4.2 23.2 1.4 10 2.8 20.2 4.2 30.4 2 12.4 4.2 25.6 6.2 39.4h706.998v-0.001z" fill="#409EFF" p-id="11446"></path></svg>