<?xml version="1.0" standalone="no"?><!DOCTYPE svg PUBLIC "-//W3C//DTD SVG 1.1//EN" "http://www.w3.org/Graphics/SVG/1.1/DTD/svg11.dtd"><svg t="1714024494756" class="icon" viewBox="0 0 1024 1024" version="1.1" xmlns="http://www.w3.org/2000/svg" p-id="15210" xmlns:xlink="http://www.w3.org/1999/xlink" width="256" height="256"><path d="M199.5 583.7h25.3c50 0 90.6 40.5 90.6 90.6v181.1c0 50-40.5 90.6-90.6 90.6h-25.3c-50 0-90.6-40.5-90.6-90.6V674.3c0-50 40.5-90.6 90.6-90.6z m293.6-74.5h25.3c50 0 90.6 40.5 90.6 90.6v271.7c0 50-40.5 90.6-90.6 90.6h-25.3c-50 0-90.6-40.5-90.6-90.6V599.8c0-50 40.6-90.6 90.6-90.6z m293.6-186.3H812c50 0 90.6 40.5 90.6 90.6v452.8c0 50-40.5 90.6-90.6 90.6h-25.3c-50 0-90.6-40.5-90.6-90.6V413.4c0-50 40.6-90.5 90.6-90.5z m-34.3-180.2L698 80.3 915.1 62l-48.4 212.4-55.5-63.9-275.8 225.9c-18.3 15.7-45.8 13.6-61.5-4.7-1.8-2.1-3.4-4.3-4.7-6.7l-62.4-106.5-226 178.9c-18.6 15.3-46 12.6-61.3-6-0.3-0.4-0.6-0.7-0.9-1.1-15.3-19.6-12.2-47.8 6.9-63.7L391 215.4c18.6-15.3 46.1-12.6 61.4 6 1.5 1.9 2.9 3.9 4.1 6L518.4 333l234-190.3z" p-id="15211" fill="#d81e06"></path></svg>