<?xml version="1.0" encoding="utf-8"?>
<!-- Generator: Adobe Illustrator 28.3.0, SVG Export Plug-In . SVG Version: 6.00 Build 0)  -->
<svg version="1.1" id="图层_1" xmlns="http://www.w3.org/2000/svg" xmlns:xlink="http://www.w3.org/1999/xlink" x="0px" y="0px"
	 viewBox="0 0 256 256" style="enable-background:new 0 0 256 256;" xml:space="preserve">
<style type="text/css">
	.st0{fill:#00A793;}
	.st1{fill:#d4237a;}
</style>
<path class="st0" d="M166.5,253.7c-14.1,0-25.6-11.5-25.6-25.6v-63.6c0-14.1,11.5-25.6,25.6-25.6h63.8c14.1-0.1,25.7,11.4,25.7,25.5
	v63.7c0,14.1-11.5,25.6-25.6,25.6H166.5z"/>
<path class="st0" d="M89.5,253.7H25.7C11.5,253.8,0.1,242.3,0,228.2v-63.6C0,150.4,11.5,139,25.6,139h63.8
	c14.1,0,25.6,11.5,25.6,25.6v63.6C115.1,242.3,103.6,253.7,89.5,253.7z"/>
<path class="st0" d="M89.5,117H25.7C11.5,117,0.1,105.6,0,91.5V27.9C0,13.7,11.5,2.3,25.6,2.3h63.8c14.1,0,25.6,11.5,25.6,25.6v63.6
	C115.1,105.6,103.6,117,89.5,117z"/>
<path class="st1" d="M198.3,117c-31.7,0-57.4-25.7-57.5-57.4c0.1-31.7,25.8-57.4,57.5-57.4c31.7,0,57.5,25.7,57.5,57.4
	C255.8,91.4,230.1,117.1,198.3,117z"/>
</svg>
